<?xml version="1.0" encoding="UTF-8" standalone="no"?>
<svg width="61px" height="60px" viewBox="0 0 61 60" version="1.1" xmlns="http://www.w3.org/2000/svg" xmlns:xlink="http://www.w3.org/1999/xlink" xmlns:sketch="http://www.bohemiancoding.com/sketch/ns">
    <!-- Generator: Sketch 3.2.2 (9983) - http://www.bohemiancoding.com/sketch -->
    <title>Oval 1</title>
    <desc>Created with Sketch.</desc>
    <defs></defs>
    <g id="Page-1" stroke="none" stroke-width="1" fill="none" fill-rule="evenodd" sketch:type="MSPage">
        <path d="M40.6688324,39.1737186 L40.6698058,39.1727451 L31.4970607,30 L40.2899539,21.2071068 L58.962699,39.8798519 L59.0828838,40.0000367 L59.0828838,40.0000367 C54.9645094,51.6519413 43.8521284,60 30.7899539,60 C14.2214114,60 0.789953906,46.5685425 0.789953906,30 C0.789953906,13.4314575 14.2214114,0 30.7899539,0 C47.3584964,0 60.7899539,13.4314575 60.7899539,30 C60.7899539,33.1130669 60.3157868,36.1153862 59.4357355,38.9386748 L40.6435073,20.1464466 L40.2899539,19.7928932 L39.7596238,20.3232233 L30.7899539,29.2928932 L30.7899539,29.2928932 L21.6435073,20.1464466 L20.9364005,20.8535534 L30.0828471,30 L20.910102,39.1727451 L20.9110754,39.1737186 C20.8355923,39.2612904 20.7899539,39.3753155 20.7899539,39.5 C20.7899539,39.7761424 21.0138115,40 21.2899539,40 L40.2899539,40 C40.5660963,40 40.7899539,39.7761424 40.7899539,39.5 C40.7899539,39.3753155 40.7443155,39.2612904 40.6688324,39.1737186 Z M39.0828471,39 L30.7899539,30.7071068 L22.4970607,39 L39.0828471,39 Z" id="Oval-1" fill="#FFFFFF" sketch:type="MSShapeGroup"></path>
    </g>
</svg>