<?xml version="1.0" encoding="UTF-8" standalone="no"?>
<svg width="35px" height="35px" viewBox="0 0 35 35" version="1.1" xmlns="http://www.w3.org/2000/svg" xmlns:xlink="http://www.w3.org/1999/xlink" xmlns:sketch="http://www.bohemiancoding.com/sketch/ns">
    <!-- Generator: Sketch 3.3.3 (12081) - http://www.bohemiancoding.com/sketch -->
    <title>Group Copy 2</title>
    <desc>Created with Sketch.</desc>
    <defs></defs>
    <g id="Page-1" stroke="none" stroke-width="1" fill="none" fill-rule="evenodd" sketch:type="MSPage">
        <g id="Group-Copy-2" sketch:type="MSLayerGroup" fill="#222222">
            <path d="M18.2071068,17.5 L22.9999899,12.7071168 L33.9033681,23.6111155 L33.9033681,23.6111155 C31.4243194,30.262577 25.0154019,35 17.5,35 C7.83501688,35 0,27.1649831 0,17.5 C0,7.83501688 7.83501688,0 17.5,0 C27.1649831,0 35,7.83501688 35,17.5 C35,19.2568053 34.741128,20.9531479 34.259449,22.5529628 L23.7070967,12.0000101 L23.7070967,12.0000101 L23.7118867,11.9952201 L23.0047799,11.2881133 L22.6464516,11.6464416 L22.2929033,11.9999899 L17.5,16.7928932 L11.9952201,11.2881133 L11.2881133,11.9952201 L16.7928932,17.5 L11.146449,23.1464442 C11.0559654,23.2369266 11,23.3619276 11,23.5 C11,23.7761424 11.2238576,24 11.5,24 L23.5000003,24 C23.7761426,24 24.0000003,23.7761424 24.0000003,23.5 C24.0000003,23.3617758 23.9439117,23.2366518 23.8532527,23.1461459 L21.5227988,20.815692 L18.2071068,17.5 Z M17.5,18.2071068 L12.7071068,23 L22.2928932,23 L17.5,18.2071068 Z" id="Oval-1-Copy" sketch:type="MSShapeGroup"></path>
        </g>
    </g>
</svg>